<?xml version="1.0" encoding="UTF-8"?>
<!DOCTYPE svg PUBLIC "-//W3C//DTD SVG 1.1//EN" "http://www.w3.org/Graphics/SVG/1.1/DTD/svg11.dtd">
<!-- Creator: CorelDRAW 2017 -->
<svg xmlns="http://www.w3.org/2000/svg" xml:space="preserve" width="50.3507mm" height="13.4162mm" version="1.1" style="shape-rendering:geometricPrecision; text-rendering:geometricPrecision; image-rendering:optimizeQuality; fill-rule:evenodd; clip-rule:evenodd"
viewBox="0 0 2006.82 534.73"
 xmlns:xlink="http://www.w3.org/1999/xlink">
 <defs>
  <style type="text/css">
   <![CDATA[
    .fil0 {fill:white}
   ]]>
  </style>
 </defs>
 <g id="Layer_x0020_1">
  <metadata id="CorelCorpID_0Corel-Layer"/>
  <g id="_2591491607776">
   <path class="fil0" d="M566.55 147.92c31.6,0 64,-0.7 95.52,0.65 27.67,1.19 60.85,5.37 60.96,34.11 0.1,29.54 -33.61,32.67 -61.8,33.22 -31.46,0.63 -63.19,0.23 -94.83,0.23l0.16 -68.2zm45.6 -100.91c35.11,0.03 100.07,-6.88 96.94,31.04 -2.61,31.64 -56.23,27.56 -86.6,27.57l-56.11 0 0.01 -57.23 45.76 -1.38zm-120.04 212.05c42.1,0.96 85.59,0.26 127.79,0.06 35.84,-0.16 88.32,1.85 120.42,-7.7 59.45,-17.68 79.03,-78.35 35.85,-108.83 -16.27,-11.48 -24.06,-12.61 -44.73,-18.84 16.52,-8.66 23.12,-8.88 35.21,-21.61 35.08,-36.92 4.91,-80.91 -49.59,-92.68 -31.28,-6.76 -77.04,-4.75 -110.08,-4.75 -38.09,0 -76.62,-0.58 -114.65,0.06l-0.23 254.29z"/>
   <path class="fil0" d="M1023.19 46.72c52.5,-6.55 113.66,9.53 123.11,69.23 10.13,64.02 -25.48,101.22 -81.43,108.85 -62.38,8.5 -115.19,-17.25 -124.73,-69.28 -5.32,-29.02 1.21,-59.94 16.76,-77.47 14.92,-16.81 35.16,-27.45 66.29,-31.34zm-7.37 -45.68c-48.86,3.7 -78.15,13.38 -113.92,41.35 -26.74,20.9 -47.77,60.68 -40.88,113.26 6.23,47.44 33.93,72.85 65.61,90.89 25.33,14.42 33.16,12.61 65.19,12.61l117.51 0c17.05,0 19.14,1.06 34.02,-5.02 18.7,-7.65 35.94,-19.36 47.59,-29.92 10.37,-9.4 23.61,-28.78 29.53,-47.93 6.71,-21.71 7.6,-48.14 2.47,-71.14 -17.94,-80.26 -110.72,-111.4 -207.12,-104.1z"/>
   <path class="fil0" d="M1377.95 216.12l-0.12 -168.41c83.68,0 156.33,-12.13 156.16,84.61 -0.16,97.34 -63.49,83.8 -156.04,83.8zm-74.38 42.37c8.17,1.75 92.28,0.65 107.94,0.65 63.03,0 128.39,2.64 171.19,-46.07 42.6,-48.47 35.04,-137.63 -13.22,-175.42 -47.1,-36.87 -97.72,-32.94 -156.67,-32.94 -17.35,0 -99.27,-1.05 -109.11,0.45l-0.13 253.33z"/>
   <path class="fil0" d="M1675.07 259.1l277.54 0.04 0 -42.98 -204.19 -0.04 -0.41 -68.56 183.41 -0.01 0.69 -43.5 -183.55 -0.37c-0.74,-8.54 -1.21,-49.24 0.47,-55.97l194.52 -0.36c2.33,-1.51 2.3,1.36 2.12,-9.28l-0.17 -32.95c-7.82,-2.06 -179.87,-0.78 -203.4,-0.78 -19.35,0 -50.19,-1.82 -68.17,0.42 -1.56,23.89 -0.22,98.26 -0.22,127.55l0 111.04c0,6.35 -0.87,12.05 1.36,15.75z"/>
   <polygon class="fil0" points="0.12,348.95 1952.34,348.97 1952.66,332.08 0.02,332.04 "/>
   <path class="fil0" d="M182.23 259.17l0.02 -211.4c11.22,-2.99 90.94,-0.81 108.57,-0.81l0.05 -42.26 -290.61 0 -0.26 42.97 107.94 0.04 0.66 211.33 73.63 0.12zm0 0l1.26 -210.92c5.13,0 101.81,1.91 107.33,-1.29 -17.63,0 -97.35,-2.18 -108.57,0.81l-0.02 211.4z"/>
   <path class="fil0" d="M1490.36 468.49l0 -27.84c11.42,-0.34 23.37,-0.21 34.81,-0.05 12.07,0.16 23,1.23 23.44,13.25 0.45,12.47 -10.48,14.02 -22.14,14.51 -11.61,0.49 -24.5,0.52 -36.11,0.12zm-29.01 63.85l28.76 -0.01 0.29 -46.04c30.32,-0.67 28.94,5.93 46.98,25.03 22.62,23.97 7.84,22.12 52.1,20.92 -2.73,-6.33 -25.36,-31.87 -32.73,-39 -4.06,-3.93 -9.21,-5.89 -14.61,-9.44 15.53,-3.99 28.06,-6.83 33.88,-19.16 8,-16.91 -2.79,-31.55 -13.18,-36.92 -17.09,-8.83 -77.91,-5.86 -101.02,-5.86l-0.47 110.48z"/>
   <path class="fil0" d="M786.5 468.59l-1.26 -28.01c22.55,-0.22 57.81,-4.83 58.28,13.24 0.54,21.06 -39.88,14.77 -57.02,14.77zm-30.27 63.76l28.74 0 0.31 -46.11c31.45,-0.22 29.07,6.26 46.97,25.13 3.87,4.09 4.86,5.92 8.41,9.66 11.9,12.53 2.11,12.6 43.72,11.21l-20.84 -26.3c-13.1,-16 -13.4,-13.24 -26.5,-22.15 15.5,-3.85 28.18,-6.88 33.85,-19.2 7.82,-16.99 -2.59,-31.34 -13.14,-36.82 -17,-8.85 -77.98,-5.89 -101.03,-5.89l-0.49 110.48z"/>
   <path class="fil0" d="M1362.95 440.67c59.03,-15.38 69.63,61.42 25.76,72.89 -45.48,11.88 -62.43,-31.06 -48.81,-56.5 4.85,-9.05 11.6,-13.41 23.05,-16.4zm81.57 44.13c4.89,-39.6 -23.78,-62.03 -60.09,-64.6 -40.82,-2.9 -73.58,12.76 -78,48.68 -4.97,40.41 22.91,62.26 59.84,65.12 40.23,3.11 73.74,-12.73 78.25,-49.21z"/>
   <path class="fil0" d="M1093.19 494.45l-28.36 2.04c6.33,48.64 80.39,41.85 101.42,28.45 9.3,-5.93 18.94,-18.91 12.98,-35.17 -8.66,-23.6 -41.71,-22.38 -68.96,-30.46 -19.71,-5.85 -15.5,-17.82 3.34,-20.4 16.26,-2.24 31.12,0.31 33.89,15.5l29.13 -0.75c-1.91,-41.94 -79.7,-41.65 -99.69,-19.32 -10.18,11.4 -7.81,27.35 1.94,35.69 8.17,6.98 21.9,11 35.4,13.75 11.35,2.3 34.16,3.88 37.09,13.31 6.53,20.94 -52.38,29.82 -58.18,-2.65z"/>
   <polygon class="fil0" points="1628.66,440.58 1705.44,440.33 1705.38,421.88 1599.98,421.85 1599.95,532.34 1708.27,532.26 1708.01,513.68 1628.63,513.41 1628.85,483.8 1700.24,483.1 1700.24,465.14 1628.73,464.93 "/>
   <path class="fil0" d="M433.8 496.46c5.42,48.92 84.42,42.13 103.49,27.11 7.93,-6.25 16.85,-18.64 10.89,-34.16 -9.02,-23.5 -44.45,-22.52 -70.29,-30.49 -19.32,-5.96 -11.88,-18.51 6.59,-20.24 6.96,-0.65 16.03,-0.27 21.83,2.16 6.18,2.59 7.25,5.93 9.43,9.97 0.18,0.34 0.85,1.54 1,1.79l28.84 1.1c-0.77,-21.82 -20.28,-31.3 -42.06,-33.31 -50.17,-4.63 -75.09,20.4 -60.98,42.87 15.89,25.3 70.5,19.43 77.86,32.67 1.96,16.78 -14.54,20.34 -30.82,19.46 -7.05,-0.37 -13.54,-1.93 -18.6,-5.65 -4.85,-3.58 -5.93,-9.19 -9.92,-15.27l-27.25 1.98z"/>
   <path class="fil0" d="M655.78 532.37l27.1 -0.29 -0.26 -110.2 -28.71 0.26 -0.14 43.22 -55.7 0.03 -0.48 -43.93 -29.64 0.17 0.28 111.24 29.66 -0.57 0.03 -47.96 55.49 0 -0.02 37.91c-0.16,10.61 -0.16,8.05 2.4,10.13z"/>
   <polygon class="fil0" points="301.98,151.68 302.5,156.29 439.74,156.26 440.3,107.75 435.24,107.54 302.23,107.57 "/>
   <polygon class="fil0" points="1189.67,440.51 1231.66,440.96 1231.95,532.34 1260.67,532.34 1260.69,440.61 1302.82,440.43 1302.59,421.87 1189.35,421.87 "/>
   <polygon class="fil0" points="884.77,440.5 926.7,441.23 927.04,532.34 955.7,532.32 955.73,440.58 997.87,440.28 997.67,421.88 884.39,421.87 "/>
   <polygon class="fil0" points="244.54,440.53 286.59,440.71 286.9,532.34 315.59,532.34 315.61,440.64 357.74,440.55 357.46,421.87 244.25,421.93 "/>
   <polygon class="fil0" points="705.89,532.23 734.78,532.27 734.46,421.83 705.79,422.34 "/>
   <polygon class="fil0" points="356.01,487.68 409.98,487.68 410.02,466.52 356.15,466.52 "/>
   <path class="fil0" d="M1981.06 9.2c23.28,-6.86 31.08,27.97 11.03,34.8 -23.85,8.13 -35.41,-27.6 -11.03,-34.8zm-1.9 -2.15c-5.82,2.19 -9.08,4.18 -11.93,9.5 -2.71,5.06 -3.36,11.56 -1.45,17.33 3.08,9.31 14.14,17.15 26.51,12.94 27.13,-9.25 12.5,-49.42 -13.13,-39.77z"/>
   <path class="fil0" d="M1981.83 16.94l9.43 1.88 -0.01 5.41 -9.51 1.02 0.08 -8.31zm-2.11 21.45c3.48,-2.57 2.04,-4.75 2.04,-10.25 11.18,1.45 2.7,9.25 13.94,10.25l-4.61 -11.16c4.2,-1.62 6.05,-2.86 4.54,-8.54 -3.98,-6.01 -11.08,-4.47 -18.42,-4.22 0,4.42 0.05,8.85 -0.02,13.27 -0.2,13.8 -0.39,9.17 2.53,10.65z"/>
  </g>
 </g>
</svg>
